<svg width="21" height="20" viewBox="0 0 21 20" fill="none" xmlns="http://www.w3.org/2000/svg">
<g clip-path="url(#clip0_16905_18139)">
<path d="M6.73524 7.63561H14.8117L11.9783 2.2179C11.7665 1.80957 11.9262 1.30648 12.3325 1.09415C12.7422 0.881825 13.2457 1.04071 13.4574 1.44915L16.6901 7.63561H19.6623C20.2769 7.63561 20.7734 8.16338 20.7734 8.74672C20.7734 9.39256 20.2769 9.85783 19.6623 9.85783L17.8602 17.094C17.5824 18.0835 16.7248 18.778 15.7039 18.778H5.81164C4.82205 18.778 3.93316 18.0835 3.68594 17.094L1.88455 9.85783C1.27101 9.85783 0.773438 9.39256 0.773438 8.74672C0.773438 8.16338 1.27101 7.63561 1.88455 7.63561H4.85677L8.08941 1.44915C8.30121 1.04071 8.80469 0.881825 9.21441 1.09415C9.62066 1.30648 9.78039 1.80957 9.56857 2.2179L6.73524 7.63561ZM7.40885 11.5245C7.40885 11.2467 7.1901 10.9689 6.8533 10.9689C6.57899 10.9689 6.29774 11.2467 6.29774 11.5245V14.8579C6.29774 15.1946 6.57899 15.4134 6.8533 15.4134C7.1901 15.4134 7.40885 15.1946 7.40885 14.8579V11.5245ZM10.1866 11.5245V14.8579C10.1866 15.1946 10.4679 15.4134 10.7422 15.4134C11.079 15.4134 11.329 15.1946 11.329 14.8579V11.5245C11.329 11.2467 11.079 10.9689 10.7422 10.9689C10.4679 10.9689 10.1866 11.2467 10.1866 11.5245ZM15.2179 11.5245C15.2179 11.2467 14.9679 10.9689 14.6623 10.9689C14.3568 10.9689 14.1068 11.2467 14.1068 11.5245V14.8579C14.1068 15.1946 14.3568 15.4134 14.6623 15.4134C14.9679 15.4134 15.2179 15.1946 15.2179 14.8579V11.5245Z" fill="#DB3127"/>
</g>
<defs>
<clipPath id="clip0_16905_18139">
<rect width="20" height="20" fill="white" transform="translate(0.773438)"/>
</clipPath>
</defs>
</svg>
