<svg width="25" height="24" viewBox="0 0 25 24" fill="none" xmlns="http://www.w3.org/2000/svg">
<path d="M11.9824 8.53994C11.9824 7.98994 11.5324 7.53994 10.9824 7.53994H3.98242C3.43242 7.53994 2.98242 7.98994 2.98242 8.53994C2.98242 9.08994 3.43242 9.53994 3.98242 9.53994H10.9824C11.5324 9.53994 11.9824 9.08994 11.9824 8.53994ZM11.9824 16.5399C11.9824 15.9899 11.5324 15.5399 10.9824 15.5399H3.98242C3.43242 15.5399 2.98242 15.9899 2.98242 16.5399C2.98242 17.0899 3.43242 17.5399 3.98242 17.5399H10.9824C11.5324 17.5399 11.9824 17.0899 11.9824 16.5399ZM18.0324 10.8299C17.6424 11.2199 17.0124 11.2199 16.6224 10.8299L14.5024 8.70994C14.1124 8.31994 14.1124 7.68994 14.5024 7.29994C14.8924 6.90994 15.5224 6.90994 15.9124 7.29994L17.3224 8.70994L20.8624 5.16994C21.2524 4.77994 21.8824 4.77994 22.2724 5.16994C22.6624 5.55994 22.6624 6.18994 22.2724 6.57994L18.0324 10.8299ZM18.0324 18.8299C17.6424 19.2199 17.0124 19.2199 16.6224 18.8299L14.5024 16.7099C14.1124 16.3199 14.1124 15.6899 14.5024 15.2999C14.8924 14.9099 15.5224 14.9099 15.9124 15.2999L17.3224 16.7099L20.8624 13.1699C21.2524 12.7799 21.8824 12.7799 22.2724 13.1699C22.6624 13.5599 22.6624 14.1899 22.2724 14.5799L18.0324 18.8299Z" fill="#DB3127"/>
</svg>
