<svg width="23" height="22" viewBox="0 0 23 22" fill="none" xmlns="http://www.w3.org/2000/svg">
<g clip-path="url(#clip0_16905_18168)">
<mask id="mask0_16905_18168" style="mask-type:luminance" maskUnits="userSpaceOnUse" x="0" y="0" width="23" height="22">
<path d="M22.7734 0H0.773438V22H22.7734V0Z" fill="white"/>
</mask>
<g mask="url(#mask0_16905_18168)">
<path d="M6.32418 11.4254C6.4316 11.1676 6.68082 11 6.96012 11H9.71012V6.875C9.71012 6.11574 10.3259 5.5 11.0851 5.5H12.4601C13.2194 5.5 13.8351 6.11574 13.8351 6.875V11H16.5851C16.8631 11 17.114 11.1672 17.2202 11.4243C17.3269 11.6814 17.2678 11.9769 17.0711 12.1737L12.2586 16.9862C11.9902 17.2547 11.5548 17.2547 11.2867 16.9862L6.47419 12.1737C6.27692 11.9754 6.21676 11.6832 6.32418 11.4254Z" fill="#991B1B"/>
<path opacity="0.12" d="M11.7734 22C17.8492 22 22.7734 17.0758 22.7734 11C22.7734 4.92422 17.8492 0 11.7734 0C5.69766 0 0.773438 4.92422 0.773438 11C0.773438 17.0758 5.69766 22 11.7734 22ZM6.325 11.4254C6.43242 11.1676 6.68164 11 6.96094 11H9.71094V6.875C9.71094 6.11574 10.3267 5.5 11.0859 5.5H12.4609C13.2202 5.5 13.8359 6.11574 13.8359 6.875V11H16.5859C16.8639 11 17.1148 11.1672 17.221 11.4243C17.3277 11.6814 17.2686 11.9769 17.0719 12.1737L12.2594 16.9862C11.991 17.2547 11.5556 17.2547 11.2875 16.9862L6.47501 12.1737C6.27774 11.9754 6.21758 11.6832 6.325 11.4254Z" fill="#991B1B"/>
</g>
</g>
<defs>
<clipPath id="clip0_16905_18168">
<rect width="22" height="22" fill="white" transform="translate(0.773438)"/>
</clipPath>
</defs>
</svg>
