<svg width="44" height="44" viewBox="0 0 44 44" fill="none" xmlns="http://www.w3.org/2000/svg">
<mask id="mask0_9361_29307" style="mask-type:alpha" maskUnits="userSpaceOnUse" x="0" y="0" width="44" height="44">
<ellipse cx="22" cy="22" rx="22" ry="22" fill="#C4C4C4"/>
</mask>
<g mask="url(#mask0_9361_29307)">
<rect x="-14.9023" y="-14.9033" width="73.8064" height="73.8065" fill="#DB3127"/>
<path d="M22.0008 38.7745C31.2649 38.7745 38.7749 31.2644 38.7749 22.0003C38.7749 12.7361 31.2649 5.22607 22.0008 5.22607C12.7366 5.22607 5.22656 12.7361 5.22656 22.0003C5.22656 31.2644 12.7366 38.7745 22.0008 38.7745Z" fill="white"/>
<path d="M16.4008 26.8091L20.1464 26.8289V12.9688L17.2803 13.0737L13.3496 14.6973L14.4991 17.7526L16.4008 16.9766V26.8091Z" fill="black"/>
<path d="M30.4957 20.0683C30.0877 19.4185 29.511 18.8925 28.8276 18.5467C28.1019 18.1823 27.2971 18.0056 26.4861 18.0324C26.2001 18.0378 25.915 18.0673 25.6339 18.1207L25.8371 16.2643L30.153 16.1487V12.6064L22.3113 12.891L21.6971 19.7853L23.5806 20.8504L23.6715 20.75C23.8697 20.5237 24.111 20.3395 24.3813 20.2083C24.6442 20.0839 24.9307 20.018 25.2214 20.015C25.55 20.001 25.8761 20.0773 26.1646 20.2357C26.4346 20.3832 26.6587 20.6028 26.8122 20.8702C26.9725 21.1581 27.0537 21.4837 27.0472 21.8135C27.0528 22.1424 26.9728 22.467 26.8152 22.7554C26.6664 23.0245 26.4465 23.2472 26.1798 23.399C25.8966 23.557 25.5772 23.6378 25.2532 23.6334H25.2426C24.792 23.6321 24.3511 23.5017 23.9718 23.2575C23.5953 23.0311 23.2956 22.696 23.112 22.2959L22.9816 22.0022L20.9707 25.333L21.0753 25.4258C21.689 25.9663 22.3962 26.3892 23.162 26.6735C23.9419 26.9699 24.7681 27.1244 25.602 27.13H25.646C26.597 27.1474 27.5386 26.9389 28.3939 26.5213C29.1919 26.1287 29.874 25.5339 30.3729 24.7958C30.8621 24.0631 31.119 23.1991 31.1099 22.3172C31.124 21.524 30.9108 20.7434 30.4957 20.0683Z" fill="black"/>
<path d="M17.3247 30.4879L16.4952 28.382L16.4831 28.3516L15.1016 28.3379V32.5314L16.2268 32.5572V30.1957L16.9107 31.8817L17.7402 31.8999L18.4333 30.2262V32.609L19.5812 32.6364V28.3835L18.1724 28.3698L17.3247 30.4879Z" fill="black"/>
<path d="M20.0215 32.6476L21.1816 32.675V28.4008L20.0215 28.3887V32.6476Z" fill="black"/>
<path d="M24.3698 30.816L22.9807 28.4438L22.9656 28.421L21.625 28.4058V32.686L22.7957 32.7134V30.3503L24.1848 32.721L24.1984 32.7453L25.5602 32.7773V28.4468L24.3698 28.4347V30.816Z" fill="black"/>
<path d="M28.7915 30.707C28.6681 30.6024 28.5333 30.5121 28.3897 30.4377C28.2486 30.3631 28.1076 30.2947 27.9726 30.2338C27.8377 30.1729 27.7376 30.1227 27.6314 30.068C27.5434 30.0243 27.4626 29.9673 27.3918 29.8991C27.3667 29.8751 27.3466 29.8464 27.3328 29.8145C27.319 29.7826 27.3117 29.7482 27.3115 29.7134C27.3105 29.6658 27.3267 29.6193 27.3569 29.5826C27.3928 29.5404 27.4403 29.5097 27.4934 29.4943C27.709 29.4427 27.9351 29.4592 28.141 29.5415C28.2928 29.5901 28.438 29.6576 28.5732 29.7423L28.6202 29.7728L29.1009 28.7777L29.0569 28.7548C28.8249 28.6349 28.5803 28.5415 28.3275 28.4764C27.8417 28.3323 27.3224 28.35 26.8474 28.5266C26.6233 28.618 26.4293 28.7709 26.2878 28.9678C26.1484 29.1751 26.0768 29.4208 26.0831 29.6708C26.0782 29.8549 26.1172 30.0375 26.1968 30.2034C26.2721 30.3463 26.3752 30.4726 26.5001 30.5746C26.6211 30.6759 26.7534 30.7627 26.8944 30.8333C27.0349 30.9033 27.1729 30.9672 27.3084 31.025C27.4328 31.0768 27.548 31.1315 27.6511 31.1772C27.7401 31.22 27.8216 31.277 27.8923 31.3461C27.9184 31.3722 27.939 31.4033 27.9528 31.4375C27.9666 31.4718 27.9733 31.5085 27.9726 31.5454C27.9744 31.601 27.9555 31.6552 27.9196 31.6976C27.8738 31.746 27.8155 31.7808 27.7512 31.798C27.551 31.8456 27.3417 31.8393 27.1446 31.7797C27.0273 31.7427 26.9147 31.6916 26.8095 31.6276C26.6782 31.5478 26.553 31.4583 26.4349 31.3598L26.3925 31.3248L25.8223 32.253L25.8571 32.2803C26.0916 32.4741 26.3559 32.6283 26.6397 32.7368C26.9214 32.8429 27.2185 32.902 27.5192 32.9118C27.8193 32.9231 28.1183 32.8712 28.3973 32.7596C28.6384 32.668 28.8487 32.5098 29.0038 32.3032C29.1492 32.0987 29.2252 31.8528 29.2207 31.6017C29.2248 31.4208 29.1847 31.2416 29.1039 31.0798C29.0249 30.9364 28.9188 30.8098 28.7915 30.707Z" fill="black"/>
</g>
</svg>
