<svg width="21" height="20" viewBox="0 0 21 20" fill="none" xmlns="http://www.w3.org/2000/svg">
<g clip-path="url(#clip0_16905_18144)">
<path d="M11.4766 3.625C11.9359 3.625 12.3578 3.87656 12.5734 4.28062L13.0141 5.09156L14.4953 3.85687C14.6766 3.70687 14.9016 3.625 15.1359 3.625H15.7734C16.3266 3.625 16.7734 4.07281 16.7734 4.625V5.625C16.7734 6.17812 16.3266 6.625 15.7734 6.625H13.8422L15.5641 9.78437C15.9453 9.69062 16.3516 9.625 16.7734 9.625C18.9828 9.625 20.7734 11.4156 20.7734 13.625C20.7734 15.8344 18.9828 17.625 16.7734 17.625C14.5641 17.625 12.7734 15.8344 12.7734 13.625C12.7734 12.3469 13.3484 11.2594 14.2453 10.525L13.7641 9.63125C12.5266 10.5437 11.7734 11.9937 11.7734 13.625C11.7734 13.9406 11.8078 14.3031 11.8734 14.625H9.67344C9.73906 14.3031 9.74531 13.9406 9.74531 13.625C9.74531 10.8625 7.53594 8.625 4.74531 8.625H1.74531V7.625C1.74531 7.07187 2.22125 6.625 2.74531 6.625H5.94531C6.47656 6.625 6.98281 6.83437 7.35781 7.20937L8.74531 8.625L11.8391 6.07188L11.3266 5.125H9.49531C9.10781 5.125 8.74531 4.78906 8.74531 4.375C8.74531 3.96094 9.10781 3.625 9.49531 3.625H11.4766ZM14.7734 13.625C14.7734 14.7281 15.6703 15.625 16.7734 15.625C17.8766 15.625 18.7734 14.7281 18.7734 13.625C18.7734 12.5219 17.8766 11.625 16.7734 11.625C16.6984 11.625 16.6234 11.6281 16.5516 11.6375L17.4328 13.2687C17.6297 13.6312 17.4953 14.0875 17.1297 14.2844C16.7672 14.4812 16.3109 14.3469 16.1141 13.9812L15.2328 12.35C14.9453 12.6969 14.7734 13.1406 14.7734 13.625ZM8.70469 14.375C8.35156 16.225 6.72656 17.625 4.77344 17.625C2.56438 17.625 0.773438 15.8344 0.773438 13.625C0.773438 11.4156 2.56438 9.625 4.77344 9.625C6.72656 9.625 8.35156 11.025 8.70469 12.875H6.62656C6.33281 12.1406 5.61406 11.625 4.77344 11.625C3.66875 11.625 2.77344 12.5219 2.77344 13.625C2.77344 14.7281 3.66875 15.625 4.77344 15.625C5.61406 15.625 6.33281 15.1094 6.62656 14.375H8.70469ZM3.77344 13.625C3.77344 13.0719 4.22031 12.625 4.77344 12.625C5.32656 12.625 5.77344 13.0719 5.77344 13.625C5.77344 14.1781 5.32656 14.625 4.77344 14.625C4.22031 14.625 3.77344 14.1781 3.77344 13.625Z" fill="#DB3127"/>
</g>
<defs>
<clipPath id="clip0_16905_18144">
<rect width="20" height="20" fill="white" transform="translate(0.773438)"/>
</clipPath>
</defs>
</svg>
