<svg width="21" height="20" viewBox="0 0 21 20" fill="none" xmlns="http://www.w3.org/2000/svg">
<g clip-path="url(#clip0_16905_18163)">
<path d="M6.60677 12.4999H12.4401V14.1666H6.60677V12.4999ZM6.60677 9.16658H14.9401V10.8333H6.60677V9.16658ZM6.60677 5.83325H14.9401V7.49992H6.60677V5.83325ZM16.6068 2.49992H13.1234C12.7734 1.53325 11.8568 0.833252 10.7734 0.833252C9.6901 0.833252 8.77344 1.53325 8.42344 2.49992H4.9401C4.82344 2.49992 4.7151 2.50825 4.60677 2.53325C4.28177 2.59992 3.9901 2.76659 3.7651 2.99159C3.6151 3.14159 3.4901 3.32492 3.40677 3.52492C3.32344 3.71659 3.27344 3.93325 3.27344 4.16659V15.8333C3.27344 16.0583 3.32344 16.2833 3.40677 16.4833C3.4901 16.6833 3.6151 16.8583 3.7651 17.0166C3.9901 17.2416 4.28177 17.4083 4.60677 17.4749C4.7151 17.4916 4.82344 17.4999 4.9401 17.4999H16.6068C17.5234 17.4999 18.2734 16.7499 18.2734 15.8333V4.16659C18.2734 3.24992 17.5234 2.49992 16.6068 2.49992ZM10.7734 2.29159C11.1151 2.29159 11.3984 2.57492 11.3984 2.91659C11.3984 3.25825 11.1151 3.54159 10.7734 3.54159C10.4318 3.54159 10.1484 3.25825 10.1484 2.91659C10.1484 2.57492 10.4318 2.29159 10.7734 2.29159ZM16.6068 15.8333H4.9401V4.16659H16.6068V15.8333Z" fill="#DB3127"/>
</g>
<defs>
<clipPath id="clip0_16905_18163">
<rect width="20" height="20" fill="white" transform="translate(0.773438)"/>
</clipPath>
</defs>
</svg>
