<svg width="21" height="20" viewBox="0 0 21 20" fill="none" xmlns="http://www.w3.org/2000/svg">
<g clip-path="url(#clip0_16905_18148)">
<path d="M10.7741 19.1668C15.8367 19.1668 19.9408 15.0628 19.9408 10.0002C19.9408 4.93755 15.8367 0.833496 10.7741 0.833496C5.71148 0.833496 1.60742 4.93755 1.60742 10.0002C1.60742 15.0628 5.71148 19.1668 10.7741 19.1668Z" fill="#FEF2F2" stroke="#DB3127" stroke-width="1.66667" stroke-linecap="round" stroke-linejoin="round"/>
<mask id="mask0_16905_18148" style="mask-type:luminance" maskUnits="userSpaceOnUse" x="8" y="5" width="7" height="9">
<path fill-rule="evenodd" clip-rule="evenodd" d="M8.61719 13.0884H8.62195H10.9672C13.1187 13.0884 14.8628 11.3443 14.8628 9.19284C14.8622 7.03936 13.1172 5.29492 10.9649 5.29492H8.62715" fill="white"/>
</mask>
<g mask="url(#mask0_16905_18148)">
<path d="M8.61932 11.4219C8.62023 11.4219 8.62113 11.4219 8.62204 11.4219V14.7553C8.61978 14.7553 8.6175 14.7553 8.61523 14.7552L8.61932 11.4219ZM8.62204 11.4219H10.9673V14.7553H8.62204V11.4219ZM10.9673 11.4219C12.1983 11.4219 13.1962 10.424 13.1962 9.193L16.5296 9.1925C16.5296 12.2644 14.0392 14.7553 10.9673 14.7553V11.4219ZM13.1962 9.193C13.1958 7.95956 12.1967 6.96175 10.965 6.96175V3.62842C14.0379 3.62842 16.5287 6.11907 16.5296 9.1925L13.1962 9.193ZM10.965 6.96175H8.62723V3.62842H10.965V6.96175Z" fill="#DB3127"/>
</g>
<path d="M10.0362 10.2969L7.83203 12.501L10.0362 14.705" stroke="#DB3127" stroke-width="1.66667"/>
</g>
<defs>
<clipPath id="clip0_16905_18148">
<rect width="20" height="20" fill="white" transform="translate(0.773438)"/>
</clipPath>
</defs>
</svg>
