<svg width="21" height="20" viewBox="0 0 21 20" fill="none" xmlns="http://www.w3.org/2000/svg">
<g clip-path="url(#clip0_16905_18177)">
<mask id="mask0_16905_18177" style="mask-type:luminance" maskUnits="userSpaceOnUse" x="0" y="0" width="21" height="20">
<path d="M20.7734 0H0.773438V20H20.7734V0Z" fill="white"/>
</mask>
<g mask="url(#mask0_16905_18177)">
<path d="M2.44036 6.66667H15.7737V8.33333H17.4404V5.83334C17.4406 5.82834 17.4406 5.82333 17.4404 5.81834C17.4382 5.72157 17.4191 5.62595 17.3837 5.53584C17.3746 5.51251 17.3621 5.49167 17.3512 5.46917C17.3376 5.43564 17.3217 5.40307 17.3037 5.37168L13.9704 0.371672C13.8941 0.25695 13.7904 0.16295 13.6688 0.0980883C13.5472 0.0332257 13.4115 -0.000474404 13.2737 5.04511e-06H4.94036C4.80312 7.59624e-05 4.66802 0.0340387 4.54707 0.0988767C4.42612 0.163715 4.32305 0.257421 4.24702 0.371672L0.91369 5.37168C0.895689 5.40307 0.879821 5.43564 0.86619 5.46917C0.855357 5.49167 0.842857 5.51251 0.83369 5.53584C0.797314 5.62547 0.777004 5.72082 0.77369 5.81751C0.773353 5.82277 0.773353 5.82807 0.77369 5.83334V15.8333C0.77369 16.0543 0.861488 16.2663 1.01777 16.4226C1.17405 16.5788 1.38601 16.6667 1.60702 16.6667H7.44036V15H2.44036V6.66667ZM15.0496 5.00001H9.94039V1.66667H12.8279L15.0496 5.00001ZM5.38619 1.66667H8.27369V5.00001H3.16452L5.38619 1.66667Z" fill="#DB3127"/>
<path d="M15.7734 13.3333H11.9517L13.8625 11.4225L12.6842 10.2441L8.76172 14.1666L12.6842 18.0891L13.8625 16.9108L11.9517 15H15.7734C16.6574 15 17.5053 15.3511 18.1304 15.9762C18.7555 16.6014 19.1067 17.4492 19.1067 18.3333V20H20.7734V18.3333C20.7719 17.0076 20.2445 15.7368 19.3072 14.7995C18.3699 13.8621 17.099 13.3348 15.7734 13.3333Z" fill="#DB3127"/>
</g>
</g>
<defs>
<clipPath id="clip0_16905_18177">
<rect width="20" height="20" fill="white" transform="translate(0.773438)"/>
</clipPath>
</defs>
</svg>
