<svg width="21" height="20" viewBox="0 0 21 20" fill="none" xmlns="http://www.w3.org/2000/svg">
<path opacity="0.12" d="M13.2734 11.6667H8.27344V17.5001H13.2734V11.6667Z" fill="#DB3127"/>
<path d="M12.4395 17.5001C12.4395 17.9603 12.8125 18.3334 13.2728 18.3334C13.733 18.3334 14.1061 17.9603 14.1061 17.5001H12.4395ZM7.43945 17.5001C7.43945 17.9603 7.81255 18.3334 8.27279 18.3334C8.73302 18.3334 9.10612 17.9603 9.10612 17.5001H7.43945ZM9.10612 5.83342C9.10612 5.37318 8.73302 5.00008 8.27279 5.00008C7.81255 5.00008 7.43945 5.37318 7.43945 5.83342H9.10612ZM4.10612 5.83342C4.10612 5.37318 3.73302 5.00008 3.27279 5.00008C2.81255 5.00008 2.43945 5.37318 2.43945 5.83342H4.10612ZM14.1061 5.83342C14.1061 5.37318 13.733 5.00008 13.2728 5.00008C12.8125 5.00008 12.4395 5.37318 12.4395 5.83342H14.1061ZM19.1061 5.83342C19.1061 5.37318 18.733 5.00008 18.2728 5.00008C17.8125 5.00008 17.4395 5.37318 17.4395 5.83342H19.1061ZM9.60612 12.5001H11.9395V10.8334H9.60612V12.5001ZM12.4395 13.0001V17.5001H14.1061V13.0001H12.4395ZM9.10612 17.5001V13.0001H7.43945V17.5001H9.10612ZM11.9395 12.5001C12.1865 12.5001 12.3218 12.5007 12.419 12.5087C12.5064 12.5158 12.4874 12.5245 12.4395 12.5001L13.1961 11.0151C12.97 10.8998 12.7451 10.8631 12.5546 10.8475C12.3739 10.8327 12.159 10.8334 11.9395 10.8334V12.5001ZM14.1061 13.0001C14.1061 12.7805 14.1068 12.5657 14.092 12.3849C14.0765 12.1944 14.0397 11.9696 13.9245 11.7434L12.4395 12.5001C12.415 12.4522 12.4237 12.4332 12.4309 12.5206C12.4388 12.6177 12.4395 12.753 12.4395 13.0001H14.1061ZM12.4395 12.5001L13.9245 11.7434C13.7647 11.4298 13.5097 11.1748 13.1961 11.0151L12.4395 12.5001ZM9.60612 10.8334C9.38654 10.8334 9.1717 10.8327 8.99093 10.8475C8.80044 10.8631 8.57565 10.8998 8.34947 11.0151L9.10612 12.5001C9.0582 12.5245 9.03922 12.5158 9.12662 12.5087C9.22379 12.5007 9.35904 12.5001 9.60612 12.5001V10.8334ZM9.10612 13.0001C9.10612 12.753 9.10679 12.6177 9.1147 12.5206C9.12187 12.4332 9.13054 12.4522 9.10612 12.5001L7.62111 11.7434C7.50586 11.9696 7.46914 12.1944 7.45358 12.3849C7.4388 12.5657 7.43945 12.7805 7.43945 13.0001H9.10612ZM8.34947 11.0151C8.03587 11.1748 7.7809 11.4298 7.62111 11.7434L9.10612 12.5001L8.34947 11.0151ZM7.43945 5.83342C7.43945 6.75389 6.69326 7.50008 5.77279 7.50008V9.16675C7.61374 9.16675 9.10612 7.67437 9.10612 5.83342H7.43945ZM5.77279 7.50008C4.85231 7.50008 4.10612 6.75389 4.10612 5.83342H2.43945C2.43945 7.67437 3.93184 9.16675 5.77279 9.16675V7.50008ZM12.4395 5.83342C12.4395 6.75389 11.6933 7.50008 10.7728 7.50008V9.16675C12.6137 9.16675 14.1061 7.67437 14.1061 5.83342H12.4395ZM10.7728 7.50008C9.85229 7.50008 9.10612 6.75389 9.10612 5.83342H7.43945C7.43945 7.67437 8.93184 9.16675 10.7728 9.16675V7.50008ZM17.4395 5.83342C17.4395 6.75389 16.6933 7.50008 15.7728 7.50008V9.16675C17.6137 9.16675 19.1061 7.67437 19.1061 5.83342H17.4395ZM15.7728 7.50008C14.8523 7.50008 14.1061 6.75389 14.1061 5.83342H12.4395C12.4395 7.67437 13.9319 9.16675 15.7728 9.16675V7.50008ZM5.93945 3.33342H15.6061V1.66675H5.93945V3.33342ZM17.4395 5.16675V14.8334H19.1061V5.16675H17.4395ZM15.6061 16.6667H5.93945V18.3334H15.6061V16.6667ZM4.10612 14.8334V5.16675H2.43945V14.8334H4.10612ZM5.93945 16.6667C5.459 16.6667 5.14876 16.6661 4.91265 16.6468C4.68626 16.6283 4.60233 16.5969 4.56113 16.5759L3.80448 18.0609C4.1198 18.2216 4.44748 18.281 4.77693 18.3079C5.09665 18.3341 5.4865 18.3334 5.93945 18.3334V16.6667ZM2.43945 14.8334C2.43945 15.2864 2.4388 15.6762 2.46493 15.9959C2.49185 16.3254 2.55128 16.6531 2.71194 16.9684L4.19695 16.2118C4.17595 16.1705 4.14455 16.0866 4.12606 15.8602C4.10677 15.6241 4.10612 15.3139 4.10612 14.8334H2.43945ZM4.56113 16.5759C4.40433 16.496 4.27685 16.3686 4.19695 16.2118L2.71194 16.9684C2.95162 17.4388 3.33407 17.8212 3.80448 18.0609L4.56113 16.5759ZM17.4395 14.8334C17.4395 15.3139 17.4388 15.6241 17.4195 15.8602C17.401 16.0866 17.3696 16.1705 17.3486 16.2118L18.8336 16.9684C18.9943 16.6531 19.0537 16.3254 19.0806 15.9959C19.1068 15.6762 19.1061 15.2864 19.1061 14.8334H17.4395ZM15.6061 18.3334C16.0591 18.3334 16.449 18.3341 16.7686 18.3079C17.0981 18.281 17.4258 18.2216 17.7411 18.0609L16.9845 16.5759C16.9432 16.5969 16.8593 16.6283 16.633 16.6468C16.3968 16.6661 16.0866 16.6667 15.6061 16.6667V18.3334ZM17.3486 16.2118C17.2687 16.3686 17.1413 16.496 16.9845 16.5759L17.7411 18.0609C18.2115 17.8212 18.594 17.4388 18.8336 16.9684L17.3486 16.2118ZM15.6061 3.33342C16.0866 3.33342 16.3968 3.33407 16.633 3.35336C16.8593 3.37185 16.9432 3.40325 16.9845 3.42424L17.7411 1.93923C17.4258 1.77857 17.0981 1.71914 16.7686 1.69222C16.449 1.6661 16.0591 1.66675 15.6061 1.66675V3.33342ZM19.1061 5.16675C19.1061 4.71379 19.1068 4.32395 19.0806 4.00422C19.0537 3.67477 18.9943 3.34709 18.8336 3.03177L17.3486 3.78842C17.3696 3.82962 17.401 3.91356 17.4195 4.13995C17.4388 4.37606 17.4395 4.68629 17.4395 5.16675H19.1061ZM16.9845 3.42424C17.1413 3.50414 17.2687 3.63162 17.3486 3.78842L18.8336 3.03177C18.594 2.56137 18.2115 2.17892 17.7411 1.93923L16.9845 3.42424ZM5.93945 1.66675C5.4865 1.66675 5.09665 1.6661 4.77693 1.69222C4.44748 1.71914 4.1198 1.77857 3.80448 1.93923L4.56113 3.42424C4.60233 3.40325 4.68626 3.37185 4.91265 3.35336C5.14876 3.33407 5.459 3.33342 5.93945 3.33342V1.66675ZM4.10612 5.16675C4.10612 4.68629 4.10677 4.37606 4.12606 4.13995C4.14455 3.91356 4.17595 3.82962 4.19695 3.78842L2.71194 3.03177C2.55128 3.34709 2.49185 3.67477 2.46493 4.00422C2.4388 4.32395 2.43945 4.71379 2.43945 5.16675H4.10612ZM3.80448 1.93923C3.33407 2.17892 2.95162 2.56137 2.71194 3.03177L4.19695 3.78842C4.27685 3.63162 4.40433 3.50414 4.56113 3.42424L3.80448 1.93923Z" fill="#DB3127"/>
</svg>
