<svg width="29" height="28" viewBox="0 0 29 28" fill="none" xmlns="http://www.w3.org/2000/svg">
<rect x="0.5" width="28" height="28" rx="8" fill="#FFEDD5"/>
<path d="M21.1673 11.5002V9.00016H19.5006V11.5002H17.0007V13.1668H19.5006V15.6668H21.1673V13.1668H23.6673V11.5002H21.1673ZM12.0007 14.0002C13.8423 14.0002 15.334 12.5085 15.334 10.6668C15.334 8.82516 13.8423 7.3335 12.0007 7.3335C10.159 7.3335 8.66732 8.82516 8.66732 10.6668C8.66732 12.5085 10.159 14.0002 12.0007 14.0002ZM12.0007 9.00016C12.9173 9.00016 13.6673 9.75016 13.6673 10.6668C13.6673 11.5835 12.9173 12.3335 12.0007 12.3335C11.084 12.3335 10.334 11.5835 10.334 10.6668C10.334 9.75016 11.084 9.00016 12.0007 9.00016ZM17.3257 16.1335C15.9257 15.4168 14.109 14.8335 12.0007 14.8335C9.89232 14.8335 8.07565 15.4168 6.67565 16.1335C5.84232 16.5585 5.33398 17.4168 5.33398 18.3502V20.6668H18.6673V18.3502C18.6673 17.4168 18.159 16.5585 17.3257 16.1335ZM17.0007 19.0002H7.00065V18.3502C7.00065 18.0335 7.16732 17.7502 7.43398 17.6168C8.42565 17.1085 10.0257 16.5002 12.0007 16.5002C13.9756 16.5002 15.5756 17.1085 16.5673 17.6168C16.834 17.7502 17.0007 18.0335 17.0007 18.3502V19.0002Z" fill="#EA580C"/>
</svg>
