<svg width="29" height="28" viewBox="0 0 29 28" fill="none" xmlns="http://www.w3.org/2000/svg">
<rect x="0.5" width="28" height="28" rx="8" fill="#FEF2F2"/>
<path d="M11.5625 18L14.5 15.0625L17.4375 18L18.5 16.9375L15.5625 14L18.5 11.0625L17.4375 10L14.5 12.9375L11.5625 10L10.5 11.0625L13.4375 14L10.5 16.9375L11.5625 18ZM14.5 22C13.4028 22 12.3681 21.7917 11.3958 21.375C10.4236 20.9583 9.57292 20.3854 8.84375 19.6562C8.11458 18.9271 7.54167 18.0764 7.125 17.1042C6.70833 16.1319 6.5 15.0972 6.5 14C6.5 12.8889 6.70833 11.8507 7.125 10.8854C7.54167 9.92014 8.11458 9.07292 8.84375 8.34375C9.57292 7.61458 10.4236 7.04167 11.3958 6.625C12.3681 6.20833 13.4028 6 14.5 6C15.6111 6 16.6493 6.20833 17.6146 6.625C18.5799 7.04167 19.4271 7.61458 20.1562 8.34375C20.8854 9.07292 21.4583 9.92014 21.875 10.8854C22.2917 11.8507 22.5 12.8889 22.5 14C22.5 15.0972 22.2917 16.1319 21.875 17.1042C21.4583 18.0764 20.8854 18.9271 20.1562 19.6562C19.4271 20.3854 18.5799 20.9583 17.6146 21.375C16.6493 21.7917 15.6111 22 14.5 22ZM14.5 20.5C16.3056 20.5 17.8403 19.8681 19.1042 18.6042C20.3681 17.3403 21 15.8056 21 14C21 12.1944 20.3681 10.6597 19.1042 9.39583C17.8403 8.13194 16.3056 7.5 14.5 7.5C12.6944 7.5 11.1597 8.13194 9.89583 9.39583C8.63194 10.6597 8 12.1944 8 14C8 15.8056 8.63194 17.3403 9.89583 18.6042C11.1597 19.8681 12.6944 20.5 14.5 20.5Z" fill="#DC2626"/>
</svg>
