<svg width="29" height="28" viewBox="0 0 29 28" fill="none" xmlns="http://www.w3.org/2000/svg">
<rect x="0.5" width="28" height="28" rx="8" fill="#FFF7ED"/>
<path opacity="0.5" fill-rule="evenodd" clip-rule="evenodd" d="M10.5028 7.48877H12.0143H14.8703L14.8703 11.6821L14.8711 13.4817H7.64829V7.49028H10.5028V7.48877ZM9.92842 12.732H8.19932V12.0289H9.92842V12.732Z" fill="#F97316"/>
<path d="M22.4039 13.766L20.1205 9.76945C20.0188 9.59116 19.829 9.48145 19.6233 9.48145H16.1948C15.8793 9.48145 15.6233 9.73745 15.6233 10.0529V14.0529H7.0519C6.73647 14.0529 6.48047 14.3089 6.48047 14.6243V16.91C6.48047 17.2254 6.73647 17.4814 7.0519 17.4814H7.62333C7.62333 18.742 8.64847 19.7672 9.90904 19.7672C11.1696 19.7672 12.1948 18.742 12.1948 17.4814H16.1948H16.7662C16.7662 18.742 17.7913 19.7672 19.0519 19.7672C20.3125 19.7672 21.3376 18.742 21.3376 17.4814H21.909C22.2245 17.4814 22.4805 17.2254 22.4805 16.91V14.0529C22.4805 13.9523 22.4542 13.8529 22.4039 13.766ZM16.7662 10.6243H19.2919L20.597 12.91H16.7662V10.6243ZM9.90904 18.6243C9.27933 18.6243 8.76618 18.1123 8.76618 17.4814C8.76618 16.8506 9.27933 16.3386 9.90904 16.3386C10.5388 16.3386 11.0519 16.8506 11.0519 17.4814C11.0519 18.1123 10.5388 18.6243 9.90904 18.6243ZM19.0519 18.6243C18.421 18.6243 17.909 18.1123 17.909 17.4814C17.909 16.8506 18.421 16.3386 19.0519 16.3386C19.6828 16.3386 20.1948 16.8506 20.1948 17.4814C20.1948 18.1123 19.6828 18.6243 19.0519 18.6243Z" fill="#F97316"/>
</svg>
