<svg width="29" height="28" viewBox="0 0 29 28" fill="none" xmlns="http://www.w3.org/2000/svg">
<rect x="0.5" width="28" height="28" rx="8" fill="#DBEAFE"/>
<g clip-path="url(#clip0_13954_17704)">
<path fill-rule="evenodd" clip-rule="evenodd" d="M16.5408 17.4744C14.8709 17.4744 13.4695 18.8177 13.181 20.4431C13.1564 20.5818 13.1533 20.6115 13.1452 20.7554H5.31633C4.86548 20.7554 4.5 20.3899 4.5 19.939V7.69379C4.5 7.24293 4.86548 6.87744 5.31633 6.87744H23.6837C24.1345 6.87744 24.5 7.24293 24.5 7.69379V19.939C24.5 20.3899 24.1345 20.7554 23.6837 20.7554H22.6575C22.6504 20.6287 22.6559 20.581 22.6359 20.4584C22.3673 18.8083 20.9489 17.4744 19.2619 17.4744H16.5408ZM15.9773 11.3208C15.467 11.8437 15.1803 12.5528 15.1803 13.2923C15.1803 14.0317 15.467 14.7409 15.9773 15.2637C16.4876 15.7866 17.1797 16.0803 17.9014 16.0803C18.623 16.0803 19.3152 15.7866 19.8255 15.2637C20.3358 14.7409 20.6225 14.0317 20.6225 13.2923C20.6225 12.5528 20.3358 11.8437 19.8255 11.3208C19.3152 10.7979 18.623 10.5042 17.9014 10.5042C17.1797 10.5042 16.4876 10.7979 15.9773 11.3208ZM11.7789 9.98407C11.7789 9.40468 11.324 8.93855 10.7585 8.93855H7.35714C6.79167 8.93855 6.33673 9.40468 6.33673 9.98407C6.33673 10.5635 6.79167 11.0296 7.35714 11.0296H10.7585C11.324 11.0296 11.7789 10.5635 11.7789 9.98407ZM11.7789 14.1662C11.7789 13.5868 11.324 13.1206 10.7585 13.1206H7.35714C6.79167 13.1206 6.33673 13.5868 6.33673 14.1662C6.33673 14.7456 6.79167 15.2117 7.35714 15.2117H10.7585C11.324 15.2117 11.7789 14.7456 11.7789 14.1662Z" fill="#1E40AF"/>
<path d="M13.1452 20.7554H22.6575C22.6504 20.6287 22.6559 20.581 22.6359 20.4584L13.181 20.4431C13.1564 20.5818 13.1533 20.6115 13.1452 20.7554Z" fill="#1E40AF"/>
</g>
<defs>
<clipPath id="clip0_13954_17704">
<rect width="21" height="15.5556" fill="white" transform="translate(4 6.22217)"/>
</clipPath>
</defs>
</svg>
