<svg width="29" height="28" viewBox="0 0 29 28" fill="none" xmlns="http://www.w3.org/2000/svg">
<rect x="0.5" width="28" height="28" rx="8" fill="#DBEAFE"/>
<g clip-path="url(#clip0_13954_17712)">
<path fill-rule="evenodd" clip-rule="evenodd" d="M16.6143 11.4076V10.1076C16.6129 9.00083 15.9752 8.02129 14.4977 8.02129C13.0144 8.02129 12.345 9.00083 12.3435 10.1076L12.3435 11.4076H16.6143ZM10.6126 12.7076L10.6125 19.1817L18.3828 19.1817L18.3829 12.7077L10.6126 12.7076ZM18.3866 11.4076C19.0995 11.4076 19.6829 11.991 19.6829 12.7039V19.1854C19.6829 19.8984 19.0995 20.4817 18.3866 20.4817H10.6088C9.89583 20.4817 9.3125 19.8984 9.3125 19.1854V12.7039C9.3125 11.991 9.89583 11.4076 10.6088 11.4076H11.2569V10.1113C11.2569 8.32246 12.7088 6.87061 14.4977 6.87061C16.2866 6.87061 17.7384 8.32246 17.7384 10.1113V11.4076H18.3866ZM14.4977 18.541C13.0668 18.541 11.9014 17.3756 11.9014 15.9447C11.9014 14.5137 13.0668 13.3484 14.4977 13.3484C15.9286 13.3484 17.094 14.5137 17.094 15.9447C17.094 17.3756 15.9286 18.541 14.4977 18.541ZM13.2014 15.9447C13.2014 16.6576 13.7847 17.241 14.4977 17.241C15.2106 17.241 15.794 16.6576 15.794 15.9447C15.794 15.2317 15.2106 14.6484 14.4977 14.6484C13.7847 14.6484 13.2014 15.2317 13.2014 15.9447Z" fill="#1E40AF"/>
</g>
<defs>
<clipPath id="clip0_13954_17712">
<rect width="15.5556" height="15.5556" fill="white" transform="translate(6.72266 6.22217)"/>
</clipPath>
</defs>
</svg>
