<svg width="29" height="28" viewBox="0 0 29 28" fill="none" xmlns="http://www.w3.org/2000/svg">
<rect x="0.5" width="28" height="28" rx="8" fill="#DBEAFE"/>
<path d="M7.07031 12.2848C7.07031 12.5991 7.32748 12.8563 7.64179 12.8563H8.21328V21.4285C8.21328 21.7428 8.47044 22 8.78476 22H20.2144C20.5287 22 20.7859 21.7428 20.7859 21.4285V12.8563H21.3573C21.6717 12.8563 21.9288 12.5991 21.9288 12.2848V9.99889C21.9288 9.68458 21.6717 9.42741 21.3573 9.42741H17.1741C17.517 9.19308 17.7627 8.99305 17.8313 8.92457C18.5 8.25587 18.5 7.17006 17.8313 6.50152C17.1626 5.83283 16.0768 5.83283 15.4083 6.50152C15.134 6.77578 14.7167 7.38732 14.4197 7.95305C14.1168 7.38732 13.7053 6.77577 13.4311 6.50152C12.7854 5.85582 11.6537 5.85582 11.008 6.50152C10.3393 7.17022 10.3393 8.25604 11.008 8.92457C11.1509 9.06744 11.3795 9.24463 11.6481 9.42741H7.64189C7.32758 9.42741 7.07041 9.68458 7.07041 9.99889L7.07031 12.2848ZM9.35624 12.8563H12.7851V20.857H9.35624V12.8563ZM13.9281 12.2848V10.5704H15.0711V20.857H13.9281V12.2848ZM19.6429 20.857H16.214V12.8563H19.6429V20.857ZM20.7859 11.7133H16.214V10.5704H20.7859V11.7133ZM16.214 7.30705C16.3226 7.19275 16.4712 7.14135 16.6198 7.14135C16.7684 7.14135 16.9113 7.1985 17.0256 7.30705C17.2484 7.5299 17.2484 7.89003 17.0256 8.11287C16.6712 8.46726 15.6312 9.0729 15.1111 9.22151C15.2597 8.70143 15.8655 7.66144 16.2198 7.30705H16.214ZM11.8136 7.30705C11.9222 7.1985 12.065 7.14135 12.2194 7.14135C12.3737 7.14135 12.5166 7.1985 12.6252 7.30705C12.9796 7.66144 13.5852 8.70143 13.7338 9.22151C13.2137 9.0729 12.1737 8.46709 11.8194 8.11287C11.5965 7.89002 11.5965 7.5299 11.8194 7.30705H11.8136ZM8.21915 10.5702H12.7851V11.7132H8.21328V10.5702H8.21915Z" fill="#1E40AF"/>
</svg>
