<svg width="29" height="28" viewBox="0 0 29 28" fill="none" xmlns="http://www.w3.org/2000/svg">
<rect x="0.5" width="28" height="28" rx="8" fill="#DBEAFE"/>
<path d="M21.8602 20.4739L18.8427 11.7328C18.7843 11.5771 18.6481 11.4797 18.4728 11.4797H16.1367C16.7013 11.0125 17.0712 10.2727 17.0517 9.47455C17.0128 8.15074 15.942 7.06054 14.6182 7.00213C13.1776 6.94373 11.9901 8.09233 11.9901 9.53296C11.9901 10.3117 12.3405 11.0125 12.9051 11.4797H10.5495C10.3937 11.4797 10.238 11.5771 10.1796 11.7328L7.14262 20.4739C7.04528 20.727 7.23996 20.9995 7.5125 20.9995H21.4903C21.7629 20.9801 21.9576 20.727 21.8602 20.4739Z" stroke="#1E40AF" stroke-width="1.2" stroke-linecap="round"/>
<path fill-rule="evenodd" clip-rule="evenodd" d="M15.3971 15.1385C15.4006 15.2105 15.46 15.2671 15.5321 15.2671H16.4129C16.4497 15.2671 16.4849 15.2521 16.5104 15.2256C16.5358 15.199 16.5494 15.1633 16.5479 15.1265C16.5189 14.4137 16.0959 13.7543 15.2686 13.51V12.7406C15.2686 12.6659 15.2081 12.6055 15.1335 12.6055H13.9378C13.8632 12.6055 13.8027 12.6659 13.8027 12.7406V13.4948C13.0439 13.692 12.4077 14.2189 12.4077 15.0403C12.4077 15.5451 12.6194 15.9275 12.9781 16.2141C13.3304 16.4955 13.8215 16.6826 14.3845 16.8178C14.8737 16.9352 15.1458 17.0755 15.2951 17.2158C15.4369 17.3491 15.4767 17.4908 15.4767 17.647C15.4767 17.7536 15.4391 17.8928 15.3133 18.0067C15.187 18.1212 14.9548 18.2254 14.5356 18.2254C14.1435 18.2254 13.8914 18.1377 13.7345 18.0127C13.5802 17.8897 13.5017 17.7176 13.4824 17.5109C13.4759 17.4415 13.4176 17.3884 13.3479 17.3884H12.471C12.4339 17.3884 12.3984 17.4036 12.3729 17.4306C12.3474 17.4575 12.3341 17.4938 12.3361 17.5308C12.3862 18.4435 13.0459 18.9633 13.8027 19.157V19.9149C13.8027 19.9895 13.8632 20.05 13.9378 20.05H15.1335C15.2081 20.05 15.2686 19.9895 15.2686 19.9149V19.1676C15.6313 19.0842 15.9638 18.9328 16.2143 18.7007C16.4931 18.4423 16.6636 18.0896 16.6636 17.643C16.6636 17.0302 16.3978 16.6122 16.0124 16.3219C15.6346 16.0374 15.144 15.8768 14.6892 15.7585C14.24 15.6418 13.9624 15.5273 13.7984 15.406C13.7185 15.3469 13.669 15.2885 13.639 15.2306C13.6091 15.1732 13.5946 15.109 13.5946 15.0324C13.5946 14.8622 13.6712 14.7178 13.8227 14.6112C13.9781 14.5019 14.2172 14.4301 14.5356 14.4301C14.8706 14.4301 15.0752 14.5101 15.1988 14.6254C15.3217 14.7402 15.3862 14.9104 15.3971 15.1385Z" fill="#1E40AF"/>
</svg>
