<svg width="29" height="28" viewBox="0 0 29 28" fill="none" xmlns="http://www.w3.org/2000/svg">
<rect x="0.5" width="28" height="28" rx="8" fill="#F3E008"/>
<path d="M20.3327 9.83317C20.3327 8.9165 19.5827 8.1665 18.666 8.1665H16.166V9.83317H18.666V12.0415L15.766 15.6665H12.8327V11.4998H9.49935C7.65768 11.4998 6.16602 12.9915 6.16602 14.8332V17.3332H7.83268C7.83268 18.7165 8.94935 19.8332 10.3327 19.8332C11.716 19.8332 12.8327 18.7165 12.8327 17.3332H16.566L20.3327 12.6248V9.83317ZM7.83268 15.6665V14.8332C7.83268 13.9165 8.58268 13.1665 9.49935 13.1665H11.166V15.6665H7.83268ZM10.3327 18.1665C9.87435 18.1665 9.49935 17.7915 9.49935 17.3332H11.166C11.166 17.7915 10.791 18.1665 10.3327 18.1665Z" fill="#724D03"/>
<path d="M12.8327 8.99984H8.66602V10.6665H12.8327V8.99984Z" fill="#724D03"/>
<path d="M20.3327 14.8332C18.9493 14.8332 17.8327 15.9498 17.8327 17.3332C17.8327 18.7165 18.9493 19.8332 20.3327 19.8332C21.716 19.8332 22.8327 18.7165 22.8327 17.3332C22.8327 15.9498 21.716 14.8332 20.3327 14.8332ZM20.3327 18.1665C19.8743 18.1665 19.4993 17.7915 19.4993 17.3332C19.4993 16.8748 19.8743 16.4998 20.3327 16.4998C20.791 16.4998 21.166 16.8748 21.166 17.3332C21.166 17.7915 20.791 18.1665 20.3327 18.1665Z" fill="#724D03"/>
</svg>
