<svg width="29" height="28" viewBox="0 0 29 28" fill="none" xmlns="http://www.w3.org/2000/svg">
<rect x="0.5" width="28" height="28" rx="8" fill="#FFEDD5"/>
<path d="M12 7V5.5H17V7H12ZM13.75 16H15.25V11H13.75V16ZM14.5 22C13.5278 22 12.6186 21.8159 11.7725 21.4478C10.9264 21.0796 10.1869 20.5791 9.5539 19.9461C8.92094 19.3131 8.42038 18.5736 8.05223 17.7275C7.68408 16.8814 7.5 15.9722 7.5 15C7.5 14.0278 7.68408 13.1186 8.05223 12.2725C8.42038 11.4264 8.92094 10.6869 9.5539 10.0539C10.1869 9.42094 10.9264 8.92038 11.7725 8.55223C12.6186 8.18408 13.5247 8 14.4908 8C15.3003 8 16.0771 8.13542 16.8212 8.40625C17.5654 8.67708 18.2569 9.05556 18.8958 9.54167L19.9792 8.47917L21.0208 9.52083L19.9583 10.6042C20.4444 11.2292 20.8229 11.9153 21.0938 12.6627C21.3646 13.41 21.5 14.1901 21.5 15.003C21.5 15.9732 21.3159 16.8814 20.9478 17.7275C20.5796 18.5736 20.0791 19.3131 19.4461 19.9461C18.8131 20.5791 18.0736 21.0796 17.2275 21.4478C16.3814 21.8159 15.4722 22 14.5 22ZM14.5 20.5C16.0278 20.5 17.3264 19.9653 18.3958 18.8958C19.4653 17.8264 20 16.5278 20 15C20 13.4722 19.4653 12.1736 18.3958 11.1042C17.3264 10.0347 16.0278 9.5 14.5 9.5C12.9722 9.5 11.6736 10.0347 10.6042 11.1042C9.53472 12.1736 9 13.4722 9 15C9 16.5278 9.53472 17.8264 10.6042 18.8958C11.6736 19.9653 12.9722 20.5 14.5 20.5Z" fill="#EA580C"/>
</svg>
