<svg width="29" height="28" viewBox="0 0 29 28" fill="none" xmlns="http://www.w3.org/2000/svg">
<rect x="0.5" width="28" height="28" rx="8" fill="#FEF2F2"/>
<path d="M14.4956 18C14.7069 18 14.8854 17.9285 15.0312 17.7856C15.1771 17.6427 15.25 17.4656 15.25 17.2544C15.25 17.0431 15.1785 16.8646 15.0356 16.7188C14.8927 16.5729 14.7156 16.5 14.5044 16.5C14.2931 16.5 14.1146 16.5715 13.9688 16.7144C13.8229 16.8573 13.75 17.0344 13.75 17.2456C13.75 17.4569 13.8215 17.6354 13.9644 17.7812C14.1073 17.9271 14.2844 18 14.4956 18ZM13.75 15H15.25V10H13.75V15ZM14.5058 22C13.4047 22 12.3681 21.7917 11.3958 21.375C10.4236 20.9583 9.57292 20.3854 8.84375 19.6562C8.11458 18.9271 7.54167 18.0767 7.125 17.105C6.70833 16.1334 6.5 15.0952 6.5 13.9905C6.5 12.8857 6.70833 11.8507 7.125 10.8854C7.54167 9.92014 8.11458 9.07292 8.84375 8.34375C9.57292 7.61458 10.4233 7.04167 11.395 6.625C12.3666 6.20833 13.4048 6 14.5095 6C15.6143 6 16.6493 6.20833 17.6146 6.625C18.5799 7.04167 19.4271 7.61458 20.1562 8.34375C20.8854 9.07292 21.4583 9.92169 21.875 10.8901C22.2917 11.8585 22.5 12.8932 22.5 13.9943C22.5 15.0953 22.2917 16.1319 21.875 17.1042C21.4583 18.0764 20.8854 18.9271 20.1562 19.6562C19.4271 20.3854 18.5783 20.9583 17.6099 21.375C16.6415 21.7917 15.6068 22 14.5058 22ZM14.5 20.5C16.3056 20.5 17.8403 19.8681 19.1042 18.6042C20.3681 17.3403 21 15.8056 21 14C21 12.1944 20.3681 10.6597 19.1042 9.39583C17.8403 8.13194 16.3056 7.5 14.5 7.5C12.6944 7.5 11.1597 8.13194 9.89583 9.39583C8.63194 10.6597 8 12.1944 8 14C8 15.8056 8.63194 17.3403 9.89583 18.6042C11.1597 19.8681 12.6944 20.5 14.5 20.5Z" fill="#DC2626"/>
</svg>
